<svg version="1.1" xmlns="http://www.w3.org/2000/svg"
    viewBox="0 0 283.03549417078494 322.6512270130217" width="283.03549417078494"
    height="322.6512270130217">
    <!-- svg-source:excalidraw -->

    <defs>
        <style class="style-fonts">

        </style>

    </defs>
    <rect x="0" y="0" width="283.03549417078494" height="322.6512270130217" fill="#ffffff"></rect>
    <g stroke-linecap="round">
        <g transform="translate(111.22370262792333 11.648660277947783) rotate(0 0 150)">
            <path
                d="M-0.71 -0.56 C-0.52 49.57, 0.36 250.89, 0.29 301 M1.12 1.76 C1.25 51.55, -0.52 249.46, -0.5 299.41"
                stroke="#1e1e1e" stroke-width="2" fill="none"></path>
        </g>
    </g>
    <mask></mask>
    <g stroke-linecap="round">
        <g transform="translate(11.22370262792333 311.6486602779478) rotate(0 100 0)">
            <path
                d="M0.15 0.29 C33.54 0.42, 166.55 0.51, 199.99 0.41 M-1.22 -0.61 C32.02 -0.82, 165.42 -1.74, 199.03 -1.5"
                stroke="#1e1e1e" stroke-width="2" fill="none"></path>
        </g>
    </g>
    <mask></mask>
    <g stroke-linecap="round">
        <g transform="translate(111.22370262792333 11.648660277947783) rotate(0 80 0)">
            <path
                d="M-0.29 -0.4 C26.57 -0.42, 134.14 -0.89, 160.99 -0.83 M1.77 -1.65 C28.56 -1.48, 134.12 -0.21, 160.56 0.28"
                stroke="#1e1e1e" stroke-width="2" fill="none"></path>
        </g>
    </g>
    <mask></mask>
    <g stroke-linecap="round">
        <g transform="translate(271.22370262792333 11.648660277947783) rotate(0 0 30)">
            <path
                d="M-0.26 -0.87 C-0.29 9.2, 0.12 50.42, 0.19 60.5 M1.81 1.29 C1.6 10.99, -0.27 48.74, -0.67 58.65"
                stroke="#1e1e1e" stroke-width="2" fill="none"></path>
        </g>
    </g>
    <mask></mask>
    <g stroke-linecap="round">
        <g transform="translate(111.22370262792333 71.64866027794778) rotate(0 20 -30)">
            <path
                d="M0.2 -0.29 C6.75 -10.2, 33.78 -49, 40.27 -58.81 M-1.16 -1.49 C5.18 -11.75, 32.34 -50.37, 39.46 -60.32"
                stroke="#1e1e1e" stroke-width="2" fill="none"></path>
        </g>
    </g>
    <mask></mask>
    <g stroke-linecap="round">
        <g transform="translate(71.22370262792333 311.6486602779478) rotate(0 20 -20)">
            <path
                d="M-0.02 1 C6.58 -5.74, 32.02 -33.47, 38.83 -40.24 M-1.48 0.47 C5.53 -6.1, 33.92 -31.78, 40.92 -38.82"
                stroke="#1e1e1e" stroke-width="2" fill="none"></path>
        </g>
    </g>
    <mask></mask>
    <g stroke-linecap="round">
        <g transform="translate(111.22370262792333 271.6486602779478) rotate(0 20 20)">
            <path
                d="M0.23 -0.95 C6.71 5.46, 32.72 32.35, 39.18 39.15 M-1.11 1.17 C5.72 7.64, 34.38 33.59, 41.47 40.23"
                stroke="#1e1e1e" stroke-width="2" fill="none"></path>
        </g>
    </g>
    <mask></mask>
</svg>