<svg version="1.1" xmlns="http://www.w3.org/2000/svg"
    viewBox="0 0 296.82367821386083 322.6512270130217" width="296.82367821386083"
    height="322.6512270130217">
    <!-- svg-source:excalidraw -->

    <defs>
        <style class="style-fonts">

        </style>

    </defs>
    <rect x="0" y="0" width="296.82367821386083" height="322.6512270130217" fill="#ffffff"></rect>
    <g stroke-linecap="round">
        <g transform="translate(111.22370262792333 11.648660277947783) rotate(0 0 150)">
            <path
                d="M-0.71 -0.56 C-0.52 49.57, 0.36 250.89, 0.29 301 M1.12 1.76 C1.25 51.55, -0.52 249.46, -0.5 299.41"
                stroke="#1e1e1e" stroke-width="2" fill="none"></path>
        </g>
    </g>
    <mask></mask>
    <g stroke-linecap="round">
        <g transform="translate(11.22370262792333 311.6486602779478) rotate(0 100 0)">
            <path
                d="M0.15 0.29 C33.54 0.42, 166.55 0.51, 199.99 0.41 M-1.22 -0.61 C32.02 -0.82, 165.42 -1.74, 199.03 -1.5"
                stroke="#1e1e1e" stroke-width="2" fill="none"></path>
        </g>
    </g>
    <mask></mask>
    <g stroke-linecap="round">
        <g transform="translate(111.22370262792333 11.648660277947783) rotate(0 80 0)">
            <path
                d="M-0.29 -0.4 C26.57 -0.42, 134.14 -0.89, 160.99 -0.83 M1.77 -1.65 C28.56 -1.48, 134.12 -0.21, 160.56 0.28"
                stroke="#1e1e1e" stroke-width="2" fill="none"></path>
        </g>
    </g>
    <mask></mask>
    <g stroke-linecap="round">
        <g transform="translate(271.22370262792333 11.648660277947783) rotate(0 0 30)">
            <path
                d="M-0.26 -0.87 C-0.29 9.2, 0.12 50.42, 0.19 60.5 M1.81 1.29 C1.6 10.99, -0.27 48.74, -0.67 58.65"
                stroke="#1e1e1e" stroke-width="2" fill="none"></path>
        </g>
    </g>
    <mask></mask>
    <g stroke-linecap="round">
        <g transform="translate(111.22370262792333 71.64866027794778) rotate(0 20 -30)">
            <path
                d="M0.2 -0.29 C6.75 -10.2, 33.78 -49, 40.27 -58.81 M-1.16 -1.49 C5.18 -11.75, 32.34 -50.37, 39.46 -60.32"
                stroke="#1e1e1e" stroke-width="2" fill="none"></path>
        </g>
    </g>
    <mask></mask>
    <g stroke-linecap="round">
        <g transform="translate(71.22370262792333 311.6486602779478) rotate(0 20 -20)">
            <path
                d="M-0.02 1 C6.58 -5.74, 32.02 -33.47, 38.83 -40.24 M-1.48 0.47 C5.53 -6.1, 33.92 -31.78, 40.92 -38.82"
                stroke="#1e1e1e" stroke-width="2" fill="none"></path>
        </g>
    </g>
    <mask></mask>
    <g stroke-linecap="round">
        <g transform="translate(111.22370262792333 271.6486602779478) rotate(0 20 20)">
            <path
                d="M0.23 -0.95 C6.71 5.46, 32.72 32.35, 39.18 39.15 M-1.11 1.17 C5.72 7.64, 34.38 33.59, 41.47 40.23"
                stroke="#1e1e1e" stroke-width="2" fill="none"></path>
        </g>
    </g>
    <mask></mask>
    <g stroke-linecap="round"
        transform="translate(254.02369042089208 72.04865417443216) rotate(0 16.399993896484375 20.800003051757812)">
        <path
            d="M16.74 0.4 C19.96 0.07, 23.82 2.16, 26.45 4.9 C29.09 7.64, 31.84 12.44, 32.57 16.83 C33.3 21.22, 32.55 27.3, 30.82 31.23 C29.09 35.17, 25.55 38.94, 22.2 40.46 C18.86 41.98, 14.07 41.78, 10.74 40.33 C7.41 38.89, 4.02 35.68, 2.21 31.79 C0.41 27.9, -0.78 21.46, -0.11 17 C0.56 12.54, 3.33 7.88, 6.24 5.01 C9.14 2.14, 15.35 0.49, 17.31 -0.23 C19.26 -0.94, 18.07 0.29, 17.97 0.73 M14.37 -0.07 C17.6 -0.55, 22.08 1.64, 25.03 4.21 C27.97 6.79, 31.1 11.26, 32.04 15.38 C32.99 19.51, 32.12 24.93, 30.72 28.96 C29.31 32.99, 26.68 37.52, 23.61 39.56 C20.54 41.6, 15.68 42.21, 12.29 41.21 C8.9 40.2, 5.24 37.18, 3.27 33.52 C1.3 29.86, 0.2 23.76, 0.48 19.24 C0.75 14.73, 2.51 9.69, 4.91 6.43 C7.3 3.17, 13.21 0.56, 14.85 -0.33 C16.49 -1.22, 14.68 0.58, 14.74 1.11"
            stroke="#1e1e1e" stroke-width="2" fill="none"></path>
    </g>
    <g stroke-linecap="round">
        <g transform="translate(271.22370262792333 111.64866027794778) rotate(0 0 30)">
            <path
                d="M0.02 0.3 C0.04 10.11, 0.53 49.82, 0.33 59.81 M-1.43 -0.59 C-1.56 9.33, -0.87 50.88, -0.44 61.24"
                stroke="#1e1e1e" stroke-width="2" fill="none"></path>
        </g>
    </g>
    <mask></mask>
    <g stroke-linecap="round">
        <g
            transform="translate(270.0236904208921 136.04865417443216) rotate(0 -8 6.4000091552734375)">
            <path
                d="M-0.09 0.36 C-2.8 2.48, -13.34 10.53, -16 12.67 M-0.8 0.06 C-3.6 2.28, -13.82 11.26, -16.43 13.3"
                stroke="#1e1e1e" stroke-width="2" fill="none"></path>
        </g>
    </g>
    <mask></mask>
    <g stroke-linecap="round">
        <g
            transform="translate(270.8237392490171 136.04865417443216) rotate(0 7.5999755859375 5.600006103515625)">
            <path
                d="M-0.13 0.31 C2.46 2.23, 12.92 9.72, 15.48 11.59 M0.81 0 C3.35 1.76, 12.84 9.04, 15.19 10.83"
                stroke="#1e1e1e" stroke-width="2" fill="none"></path>
        </g>
    </g>
    <mask></mask>
    <g stroke-linecap="round">
        <g
            transform="translate(270.8237392490171 168.84867248497903) rotate(0 -7.20001220703125 8.399993896484375)">
            <path
                d="M-0.16 0.5 C-2.48 3.27, -11.92 13.85, -14.26 16.59 M0.75 0.29 C-1.58 3.13, -12.08 14.29, -14.62 17.18"
                stroke="#1e1e1e" stroke-width="2" fill="none"></path>
        </g>
    </g>
    <mask></mask>
    <g stroke-linecap="round">
        <g
            transform="translate(270.0236904208921 170.44867858849466) rotate(0 8.4000244140625 6.79998779296875)">
            <path
                d="M0.06 -0.38 C2.77 1.86, 13.69 10.78, 16.55 13.19 M-0.58 0.62 C2.02 2.93, 13.05 11.58, 15.98 13.69"
                stroke="#1e1e1e" stroke-width="2" fill="none"></path>
        </g>
    </g>
    <mask></mask>
</svg>